<svg width="29" height="28" viewBox="0 0 29 28" fill="none" xmlns="http://www.w3.org/2000/svg">
<path d="M26.82 14.292C26.82 13.382 26.7383 12.507 26.5867 11.667H14.5V16.6312H21.4067C21.1092 18.2353 20.205 19.5945 18.8458 20.5045V23.7245H22.9933C25.42 21.4903 26.82 18.2003 26.82 14.292Z" fill="#4285F4"/>
<path d="M14.4999 26.8335C17.9649 26.8335 20.8699 25.6843 22.9932 23.7243L18.8457 20.5043C17.6966 21.2743 16.2266 21.7293 14.4999 21.7293C11.1574 21.7293 8.32824 19.4718 7.31907 16.4385H3.03157V19.7635C5.14324 23.9576 9.48324 26.8335 14.4999 26.8335Z" fill="#34A853"/>
<path d="M7.31917 16.439C7.06251 15.669 6.91667 14.8465 6.91667 14.0006C6.91667 13.1548 7.06251 12.3323 7.31917 11.5623V8.2373H3.03167C2.13334 10.0256 1.66588 11.9994 1.66667 14.0006C1.66667 16.0715 2.16251 18.0315 3.03167 19.764L7.31917 16.439Z" fill="#FBBC05"/>
<path d="M14.4999 6.27116C16.3841 6.27116 18.0757 6.91866 19.4057 8.19033L23.0866 4.50949C20.8641 2.43866 17.9591 1.16699 14.4999 1.16699C9.48324 1.16699 5.14324 4.04283 3.03157 8.23699L7.31907 11.562C8.32824 8.52866 11.1574 6.27116 14.4999 6.27116Z" fill="#EA4335"/>
</svg>
